<?xml version="1.0" encoding="utf-8"?>
<!-- Generator: Adobe Illustrator 22.1.0, SVG Export Plug-In . SVG Version: 6.00 Build 0)  -->
<svg version="1.1" xmlns="http://www.w3.org/2000/svg" xmlns:xlink="http://www.w3.org/1999/xlink" x="0px" y="0px"
	 viewBox="0 0 1500 1500" style="enable-background:new 0 0 1500 1500;" xml:space="preserve">
<style type="text/css">
	.st0{display:none;}
	.st1{display:inline;fill:#4267B2;}
	.st2{fill:#FCFDFE;}
	.st3{fill:#FA3E3E;}
</style>
<g id="Layer_1">
	<g id="Layer_1_1_" class="st0">
		
			<image style="display:inline;overflow:visible;enable-background:new    ;" width="195" height="195" xlink:href="2EAB3941B087A4F1.png"  transform="matrix(7.6923 0 0 7.6923 0 0)">
		</image>
	</g>
	<g id="Layer_2_1_" class="st0">
		<path class="st1" d="M0,0v1500h1500V0H0z M684.1,449.6c-33.2-0.3-66.4-0.5-99.6-0.7c-2.4-33.2,25.3-59.5,53.5-57.5
			C664.2,393.2,686.9,419,684.1,449.6z"/>
		<path class="st1" d="M638,391.4c-28.2-2-55.9,24.3-53.5,57.5c33.2,0.2,66.4,0.4,99.6,0.7C686.9,419,664.2,393.2,638,391.4z"/>
	</g>
	<g id="Layer_3">
		<path class="st2" d="M1132.2,1095.7c-14.2-71.5-72.8-77.9-138.4-182.8c-26.8-42.8-40-78.7-49.4-104
			c-49.6-134.2-18.3-191.7-59.3-266.4C865,505.7,823.4,457.9,726.9,424c1.7-9.2,14-79.1-32.6-129.7c-38.4-41.6-91.4-42.5-125.1-43.2
			c-34-0.7-88.4-1.7-128.5,39.5c-49.5,51.1-36.1,125.1-34.5,133.4c-118.1,44.4-163.5,102.4-182.8,148.1
			c-23.4,55.9-9.5,97.7-43.5,235c-12.2,48.4-18.2,72.7-27.7,93c-46.8,99.8-113.3,104.8-141.2,190.8c-5.5,17.1-20.5,65.8,0,118.5
			c25.3,65.2,83.6,89.6,93.8,93.8h918.7c17.4-9.4,52.7-31.4,79.1-74.1C1109.5,1217.9,1145.1,1160.3,1132.2,1095.7z M638.7,407
			c-44.4-0.4-88.8-0.7-133.3-0.9c-3.2-44.4,33.9-79.6,71.6-76.9C612.1,331.6,642.5,366.1,638.7,407z"/>
		<path class="st2" d="M577.1,329.2c-37.7-2.7-74.8,32.5-71.6,76.9c44.4,0.3,88.8,0.5,133.3,0.9
			C642.5,366.1,612.1,331.6,577.1,329.2z"/>
		<path class="st2" d="M413.3,1384.1c101.4-0.1,202.8-0.3,304.3-0.4c-17.4,68.1-77.3,116.8-146.1,119.5
			C498.5,1506.1,432,1456.5,413.3,1384.1z"/>
		<path class="st3" d="M789.8,93.1c1.7-10.3,7.5-36,29.3-59.4c24.1-26,53-32.8,62.9-34.7c265.9-4.3,463-2.4,517.8,3.1
			c14.5,1.5,37.1,5.1,58.5,20.6c30.1,21.9,38.8,52.6,41.1,61.5c-1.5,248.1-2.9,496-4.3,744.1c-1.3,10.8-6.2,36-26,59.8
			c-24.1,29-54.9,37.5-64.9,39.6c-176.5-1.1-353-2.1-529.5-3.3c-11.5-4.1-38.8-15.5-61-43.6c-20.9-26.4-26.4-53.4-28.1-65.6
			C786.9,574.7,788.3,334,789.8,93.1z"/>
	</g>
</g>
<g id="Layer_2">
</g>
</svg>
